<svg xmlns="http://www.w3.org/2000/svg" xmlns:xlink="http://www.w3.org/1999/xlink" width="36.376" height="40.36" viewBox="0 0 36.376 40.36">
  <defs>
    <clipPath id="clip-path">
      <rect id="Rectangle_3165" data-name="Rectangle 3165" width="36.376" height="40.36" fill="none"/>
    </clipPath>
  </defs>
  <g id="Group_3579" data-name="Group 3579" transform="translate(0 0)">
    <g id="Group_3578" data-name="Group 3578" transform="translate(0 0)" clip-path="url(#clip-path)">
      <path id="Path_3264" data-name="Path 3264" d="M28.488,38.589H7.637A7.136,7.136,0,0,1,.5,31.452V11.694A7.137,7.137,0,0,1,7.637,4.557H28.488a7.138,7.138,0,0,1,7.137,7.137V31.452a7.137,7.137,0,0,1-7.137,7.137" transform="translate(0.126 1.146)" fill="#b5e1fa"/>
      <rect id="Rectangle_3158" data-name="Rectangle 3158" width="35.125" height="34.032" rx="5.703" transform="translate(0.626 5.703)" fill="none" stroke="#000" stroke-width="1"/>
      <path id="Path_3265" data-name="Path 3265" d="M28.488,38.589H7.637A7.136,7.136,0,0,1,.5,31.452V11.694A7.137,7.137,0,0,1,7.637,4.557H28.488a7.138,7.138,0,0,1,7.137,7.137V31.452a7.137,7.137,0,0,1-7.137,7.137" transform="translate(0.126 1.146)" fill="#b5e1fa"/>
      <rect id="Rectangle_3159" data-name="Rectangle 3159" width="35.125" height="34.032" rx="5.703" transform="translate(0.626 5.703)" fill="none" stroke="#000" stroke-width="1"/>
      <line id="Line_857" data-name="Line 857" y2="6.222" transform="translate(9.201 0)" fill="none" stroke="#000" stroke-width="1"/>
      <line id="Line_858" data-name="Line 858" y2="6.222" transform="translate(27.175 0)" fill="none" stroke="#000" stroke-width="1"/>
      <line id="Line_859" data-name="Line 859" x2="35.165" transform="translate(0.377 13.954)" fill="none" stroke="#000" stroke-width="1"/>
      <path id="Path_3266" data-name="Path 3266" d="M23.817,20.15h-2.37a1.135,1.135,0,0,1-1.135-1.135v-2.37a1.135,1.135,0,0,1,1.135-1.134h2.37a1.135,1.135,0,0,1,1.135,1.134v2.37a1.135,1.135,0,0,1-1.135,1.135" transform="translate(5.107 3.9)" fill="#fff"/>
      <path id="Rectangle_3160" data-name="Rectangle 3160" d="M.907,0H3.733A.907.907,0,0,1,4.64.907V3.733a.906.906,0,0,1-.906.906H.907A.907.907,0,0,1,0,3.732V.907A.907.907,0,0,1,.907,0Z" transform="translate(25.419 19.411)" fill="none" stroke="#000" stroke-width="1"/>
      <path id="Path_3267" data-name="Path 3267" d="M16.086,27.3h-2.37a1.135,1.135,0,0,1-1.135-1.135v-2.37a1.135,1.135,0,0,1,1.135-1.134h2.37a1.135,1.135,0,0,1,1.135,1.134v2.37A1.135,1.135,0,0,1,16.086,27.3" transform="translate(3.163 5.698)" fill="#fff"/>
      <path id="Rectangle_3161" data-name="Rectangle 3161" d="M.907,0H3.733A.907.907,0,0,1,4.64.907V3.733a.906.906,0,0,1-.906.906H.907A.907.907,0,0,1,0,3.732V.907A.907.907,0,0,1,.907,0Z" transform="translate(15.744 28.359)" fill="none" stroke="#000" stroke-width="1"/>
      <path id="Path_3268" data-name="Path 3268" d="M16.086,20.15h-2.37a1.135,1.135,0,0,1-1.135-1.135v-2.37a1.135,1.135,0,0,1,1.135-1.134h2.37a1.135,1.135,0,0,1,1.135,1.134v2.37a1.135,1.135,0,0,1-1.135,1.135" transform="translate(3.163 3.9)" fill="#fff"/>
      <path id="Rectangle_3162" data-name="Rectangle 3162" d="M.907,0H3.733A.907.907,0,0,1,4.64.907V3.733a.906.906,0,0,1-.906.906H.907A.907.907,0,0,1,0,3.732V.907A.907.907,0,0,1,.907,0Z" transform="translate(15.744 19.411)" fill="none" stroke="#000" stroke-width="1"/>
      <path id="Path_3269" data-name="Path 3269" d="M8.354,27.3H5.984a1.135,1.135,0,0,1-1.135-1.135v-2.37a1.135,1.135,0,0,1,1.135-1.134h2.37a1.135,1.135,0,0,1,1.135,1.134v2.37A1.135,1.135,0,0,1,8.354,27.3" transform="translate(1.219 5.698)" fill="#fff"/>
      <path id="Rectangle_3163" data-name="Rectangle 3163" d="M.907,0H3.733A.907.907,0,0,1,4.64.907V3.733a.906.906,0,0,1-.906.906H.907A.907.907,0,0,1,0,3.732V.907A.907.907,0,0,1,.907,0Z" transform="translate(6.068 28.359)" fill="none" stroke="#000" stroke-width="1"/>
      <path id="Path_3270" data-name="Path 3270" d="M8.354,20.15H5.984a1.135,1.135,0,0,1-1.135-1.135v-2.37a1.135,1.135,0,0,1,1.135-1.134h2.37a1.135,1.135,0,0,1,1.135,1.134v2.37A1.135,1.135,0,0,1,8.354,20.15" transform="translate(1.219 3.9)" fill="#fff"/>
      <path id="Rectangle_3164" data-name="Rectangle 3164" d="M.907,0H3.733A.907.907,0,0,1,4.64.907V3.733a.906.906,0,0,1-.906.906H.907A.907.907,0,0,1,0,3.732V.907A.907.907,0,0,1,.907,0Z" transform="translate(6.068 19.411)" fill="none" stroke="#000" stroke-width="1"/>
    </g>
  </g>
</svg>
