<svg xmlns="http://www.w3.org/2000/svg" width="96" height="18" viewBox="0 0 96 18">
  <g id="Group_3574" data-name="Group 3574" transform="translate(-534 -877)">
    <g id="Group_194" data-name="Group 194" transform="translate(534 877.15)">
      <rect id="Rectangle_243" data-name="Rectangle 243" width="19" height="18" transform="translate(0 -0.15)" fill="#1db67a"/>
      <path id="Path_244" data-name="Path 244" d="M8.8,221.211l-2.663.691,2.339-1.7,3.79-2.748H7.58L6.137,213l-1.451,4.456L0,217.447,3.79,220.2,2.339,224.66l3.79-2.757,3.79,2.757Z" transform="translate(2.651 -210.889)" fill="#fff"/>
    </g>
    <g id="Group_194-2" data-name="Group 194" transform="translate(554.401 877.15)">
      <rect id="Rectangle_243-2" data-name="Rectangle 243" width="19" height="18" transform="translate(-0.402 -0.15)" fill="#1db67a"/>
      <path id="Path_244-2" data-name="Path 244" d="M8.8,221.211l-2.663.691,2.339-1.7,3.79-2.748H7.58L6.137,213l-1.451,4.456L0,217.447,3.79,220.2,2.339,224.66l3.79-2.757,3.79,2.757Z" transform="translate(3.205 -210.889)" fill="#fff"/>
    </g>
    <g id="Group_194-3" data-name="Group 194" transform="translate(573.803 877.15)">
      <rect id="Rectangle_243-3" data-name="Rectangle 243" width="18" height="18" transform="translate(0.197 -0.15)" fill="#1db67a"/>
      <path id="Path_244-3" data-name="Path 244" d="M8.8,221.211l-2.663.691,2.339-1.7,3.79-2.748H7.58L6.137,213l-1.451,4.456L0,217.447,3.79,220.2,2.339,224.66l3.79-2.757,3.79,2.757Z" transform="translate(3.019 -210.889)" fill="#fff"/>
    </g>
    <g id="Group_194-4" data-name="Group 194" transform="translate(593.205 877.15)">
      <rect id="Rectangle_243-4" data-name="Rectangle 243" width="18" height="18" transform="translate(-0.205 -0.15)" fill="#1db67a"/>
      <path id="Path_244-4" data-name="Path 244" d="M8.8,221.211l-2.663.691,2.339-1.7,3.79-2.748H7.58L6.137,213l-1.451,4.456L0,217.447,3.79,220.2,2.339,224.66l3.79-2.757,3.79,2.757Z" transform="translate(2.874 -210.889)" fill="#fff"/>
    </g>
    <g id="Group_194-5" data-name="Group 194" transform="translate(611.831 877.15)">
      <rect id="Rectangle_243-5" data-name="Rectangle 243" width="18" height="18" transform="translate(0.169 -0.15)" fill="#1db67a"/>
      <rect id="Rectangle_438" data-name="Rectangle 438" width="7" height="18" transform="translate(11.169 -0.15)" fill="#f0f0f0"/>
      <path id="Path_244-5" data-name="Path 244" d="M8.8,221.211l-2.663.691,2.339-1.7,3.79-2.748H7.58L6.137,213l-1.451,4.456L0,217.447,3.79,220.2,2.339,224.66l3.79-2.757,3.79,2.757Z" transform="translate(2.766 -210.888)" fill="#fff"/>
    </g>
  </g>
</svg>
