<svg id="Group_3582" data-name="Group 3582" xmlns="http://www.w3.org/2000/svg" xmlns:xlink="http://www.w3.org/1999/xlink" width="40.438" height="40.439" viewBox="0 0 40.438 40.439">
  <defs>
    <clipPath id="clip-path">
      <rect id="Rectangle_3171" data-name="Rectangle 3171" width="40.438" height="40.439" fill="none"/>
    </clipPath>
  </defs>
  <g id="Group_3581" data-name="Group 3581" transform="translate(0 0)" clip-path="url(#clip-path)">
    <path id="Path_3271" data-name="Path 3271" d="M39.682,20.091A19.591,19.591,0,1,1,20.092.5a19.59,19.59,0,0,1,19.59,19.591" transform="translate(0.128 0.128)" fill="#b5e1fa"/>
    <path id="Path_3272" data-name="Path 3272" d="M39.682,20.091A19.591,19.591,0,1,1,20.092.5,19.59,19.59,0,0,1,39.682,20.091Z" transform="translate(0.128 0.128)" fill="none" stroke="#000" stroke-width="1"/>
    <path id="Path_3273" data-name="Path 3273" d="M27.211,13.326l-3.269,1.888a.463.463,0,0,1-.693-.4V13.537a2.029,2.029,0,0,0-2.029-2.029H9.837a2.03,2.03,0,0,0-2.03,2.029V21a2.031,2.031,0,0,0,2.03,2.03H21.22A2.03,2.03,0,0,0,23.249,21V19.725a.462.462,0,0,1,.693-.4l3.269,1.887a.944.944,0,0,0,1.417-.818V14.144a.945.945,0,0,0-1.417-.818" transform="translate(2.001 2.95)" fill="#fff"/>
    <path id="Path_3274" data-name="Path 3274" d="M27.211,13.326l-3.269,1.888a.463.463,0,0,1-.693-.4V13.537a2.029,2.029,0,0,0-2.029-2.029H9.837a2.03,2.03,0,0,0-2.03,2.029V21a2.031,2.031,0,0,0,2.03,2.03H21.22A2.03,2.03,0,0,0,23.249,21V19.725a.462.462,0,0,1,.693-.4l3.269,1.887a.944.944,0,0,0,1.417-.818V14.144A.945.945,0,0,0,27.211,13.326Z" transform="translate(2.001 2.95)" fill="none" stroke="#000" stroke-width="1"/>
  </g>
</svg>
